<svg xmlns="http://www.w3.org/2000/svg" viewBox="0 0 64 64"><g stroke="null" clip-rule="evenodd" fill-rule="evenodd"><path fill="#84BD00" d="M53.678 4.01C53.306.332 49.373-1.033 45.037.826c-2.063.884-3.867 2.35-5.143 4.026.21-1.674-.267-3.15-1.48-4.029-2.39-1.73-6.7-.444-9.656 2.765-1.033 1.123-4.392 5.191-4.568 11.138-.086 2.877 1.198 9.272 5.413 13.684 11.228-4.245 17.266-10.728 19.552-13.398 2.656-3.1 3.788-5.841 4.252-7.838.371-1.597.316-2.718.27-3.166zM25.383 30.847c-1.536 2.555-5.7 6.66-9.016 8.782-6.892 4.408-11.851 4.697-14.331 3.126a4.084 4.084 0 0 1-.765-.62c-1.94-2.019-1.608-5.639.644-8.599 1.114-1.464 2.522-2.482 3.916-2.947-1.074-.51-1.803-1.565-1.952-3.043-.3-2.964 1.93-6.848 5.003-8.415 2.715-1.385 8.53-2.751 12.817 3.644 1.666 2.485 3.18 6.029 3.684 8.072zm38.06 4.054c-1.288 4.112-5.536 7.977-10.644 8.754.817 1.266 1.204 2.849 1.003 4.613-.545 4.77-5.12 8.602-10 8.64-3.304.026-7.787-1.41-10.955-6.385-2.821-4.431-3.24-11.471-3.026-13.607-3.457 3.54-5.607 6.959-6.627 9.35-2.3 5.39-3.182 11.95-3.13 15.02 0 0-.413.39-.82.477-1.28-.23-2.382-.7-3.217-1.435-1.013-.89-1.232-1.752-1.232-1.752 1.522-7.63 3.949-12.403 7.58-17.84 4.896-7.334 12.432-11.884 21.368-14.61 6.466-1.974 13.172-2.396 17.793 1.502 2.485 2.096 2.63 5.047 1.907 7.273z"/><path fill="#48A23F" d="M30.527 32.403c-.153.634-.356 1.675-.565 3.314l-.03.25c-.038.298-.074.614-.11.95-3.458 3.54-5.608 6.959-6.628 9.35-2.3 5.39-3.182 11.95-3.13 15.02 0 0-.413.39-.819.477.451-13.194 3.19-23.548 11.224-29.32l.058-.04zm33.268.776a7.79 7.79 0 0 1-.352 1.724c-1.288 4.111-5.536 7.977-10.644 8.753l-.065-.103c-.432-.669-.807-1.021-1.253-1.456 2.951.262 5.557-.676 7.817-2.076 2.552-1.582 4.137-4.459 4.497-6.842zm-38.411-2.33c-1.537 2.554-5.7 6.66-9.017 8.78-6.892 4.409-11.851 4.698-14.331 3.127 1.21.57 4.83-.034 8.544-1.614 7.484-3.296 11.837-7.49 14.803-10.293zm28.092-23.99a12.9 12.9 0 0 1-.069.316c-.464 1.997-1.596 4.737-4.251 7.838-2.286 2.67-8.321 9.15-19.543 13.394 1.477-1.002 5.349-3.557 12.1-8.649 6.515-4.912 11.211-10.672 11.763-12.9z"/></g></svg>